<?xml version="1.0" standalone="no"?><svg xmlns="http://www.w3.org/2000/svg" viewBox="0 0 1440 320"><path fill="#5D9C59" fill-opacity="1" d="M0,224L40,218.7C80,213,160,203,240,170.7C320,139,400,85,480,96C560,107,640,181,720,224C800,267,880,277,960,272C1040,267,1120,245,1200,224C1280,203,1360,181,1400,170.7L1440,160L1440,320L1400,320C1360,320,1280,320,1200,320C1120,320,1040,320,960,320C880,320,800,320,720,320C640,320,560,320,480,320C400,320,320,320,240,320C160,320,80,320,40,320L0,320Z"></path></svg>